<?xml version="1.0" encoding="UTF-8" standalone="no"?>
<!DOCTYPE svg PUBLIC "-//W3C//DTD SVG 1.1//EN"
 "http://www.w3.org/Graphics/SVG/1.1/DTD/svg11.dtd">
<!-- Generated by graphviz version 3.0.0 (20220226.1711)
 -->
<!-- Title: dependencies Pages: 1 -->
<svg width="1008pt" height="247pt"
 viewBox="0.00 0.00 1008.00 246.80" xmlns="http://www.w3.org/2000/svg" xmlns:xlink="http://www.w3.org/1999/xlink">
<g id="graph0" class="graph" transform="scale(1 1) rotate(0) translate(4 242.8)">
<title>dependencies</title>
<polygon fill="white" stroke="transparent" points="-4,4 -4,-242.8 1004,-242.8 1004,4 -4,4"/>
<text text-anchor="middle" x="500" y="-8.2" font-family="sans-serif" font-size="14.00">dependencies</text>
<g id="clust1" class="cluster">
<title>cluster_SharedModule</title>
<polygon fill="none" stroke="black" stroke-dasharray="1,5" points="8,-32.8 8,-230.8 992,-230.8 992,-32.8 8,-32.8"/>
</g>
<g id="clust9" class="cluster">
<title>cluster_SharedModule_imports</title>
<polygon fill="none" stroke="black" points="864,-40.8 864,-92.8 984,-92.8 984,-40.8 864,-40.8"/>
</g>
<g id="clust10" class="cluster">
<title>cluster_SharedModule_exports</title>
<polygon fill="none" stroke="black" points="149,-170.8 149,-222.8 855,-222.8 855,-170.8 149,-170.8"/>
</g>
<g id="clust2" class="cluster">
<title>cluster_SharedModule_declarations</title>
<polygon fill="none" stroke="black" points="16,-40.8 16,-92.8 856,-92.8 856,-40.8 16,-40.8"/>
</g>
<!-- ButtonComponent -->
<g id="node1" class="node">
<title>ButtonComponent</title>
<polygon fill="#ffffb3" stroke="black" points="847.95,-84.8 728.05,-84.8 728.05,-48.8 847.95,-48.8 847.95,-84.8"/>
<text text-anchor="middle" x="788" y="-62.6" font-family="Times,serif" font-size="14.00">ButtonComponent</text>
</g>
<!-- SharedModule -->
<g id="node7" class="node">
<title>SharedModule</title>
<polygon fill="#8dd3c7" stroke="black" points="562.43,-149.8 559.43,-153.8 538.43,-153.8 535.43,-149.8 463.57,-149.8 463.57,-113.8 562.43,-113.8 562.43,-149.8"/>
<text text-anchor="middle" x="513" y="-127.6" font-family="Times,serif" font-size="14.00">SharedModule</text>
</g>
<!-- ButtonComponent&#45;&gt;SharedModule -->
<g id="edge1" class="edge">
<title>ButtonComponent&#45;&gt;SharedModule</title>
<path fill="none" stroke="black" d="M767.72,-84.82C767.72,-102.17 767.72,-125.8 767.72,-125.8 767.72,-125.8 572.42,-125.8 572.42,-125.8"/>
<polygon fill="black" stroke="black" points="572.42,-122.3 562.42,-125.8 572.42,-129.3 572.42,-122.3"/>
</g>
<!-- CellHostDirective -->
<g id="node2" class="node">
<title>CellHostDirective</title>
<polygon fill="#ffffb3" stroke="black" points="709.86,-84.8 592.14,-84.8 592.14,-48.8 709.86,-48.8 709.86,-84.8"/>
<text text-anchor="middle" x="651" y="-62.6" font-family="Times,serif" font-size="14.00">CellHostDirective</text>
</g>
<!-- CellHostDirective&#45;&gt;SharedModule -->
<g id="edge2" class="edge">
<title>CellHostDirective&#45;&gt;SharedModule</title>
<path fill="none" stroke="black" d="M630.98,-85.04C630.98,-100.37 630.98,-119.8 630.98,-119.8 630.98,-119.8 572.35,-119.8 572.35,-119.8"/>
<polygon fill="black" stroke="black" points="572.35,-116.3 562.35,-119.8 572.35,-123.3 572.35,-116.3"/>
</g>
<!-- HeaderComponent -->
<g id="node3" class="node">
<title>HeaderComponent</title>
<polygon fill="#ffffb3" stroke="black" points="573.75,-84.8 452.25,-84.8 452.25,-48.8 573.75,-48.8 573.75,-84.8"/>
<text text-anchor="middle" x="513" y="-62.6" font-family="Times,serif" font-size="14.00">HeaderComponent</text>
</g>
<!-- HeaderComponent&#45;&gt;SharedModule -->
<g id="edge3" class="edge">
<title>HeaderComponent&#45;&gt;SharedModule</title>
<path fill="none" stroke="black" d="M513,-84.91C513,-84.91 513,-103.79 513,-103.79"/>
<polygon fill="black" stroke="black" points="509.5,-103.79 513,-113.79 516.5,-103.79 509.5,-103.79"/>
</g>
<!-- SidebarComponent -->
<g id="node4" class="node">
<title>SidebarComponent</title>
<polygon fill="#ffffb3" stroke="black" points="434.1,-84.8 309.9,-84.8 309.9,-48.8 434.1,-48.8 434.1,-84.8"/>
<text text-anchor="middle" x="372" y="-62.6" font-family="Times,serif" font-size="14.00">SidebarComponent</text>
</g>
<!-- SidebarComponent&#45;&gt;SharedModule -->
<g id="edge4" class="edge">
<title>SidebarComponent&#45;&gt;SharedModule</title>
<path fill="none" stroke="black" d="M390.66,-85.04C390.66,-100.37 390.66,-119.8 390.66,-119.8 390.66,-119.8 453.59,-119.8 453.59,-119.8"/>
<polygon fill="black" stroke="black" points="453.59,-123.3 463.59,-119.8 453.59,-116.3 453.59,-123.3"/>
</g>
<!-- TableCellComponent -->
<g id="node5" class="node">
<title>TableCellComponent</title>
<polygon fill="#ffffb3" stroke="black" points="292.03,-84.8 155.97,-84.8 155.97,-48.8 292.03,-48.8 292.03,-84.8"/>
<text text-anchor="middle" x="224" y="-62.6" font-family="Times,serif" font-size="14.00">TableCellComponent</text>
</g>
<!-- TableCellComponent&#45;&gt;SharedModule -->
<g id="edge5" class="edge">
<title>TableCellComponent&#45;&gt;SharedModule</title>
<path fill="none" stroke="black" d="M282.17,-84.82C282.17,-102.17 282.17,-125.8 282.17,-125.8 282.17,-125.8 453.76,-125.8 453.76,-125.8"/>
<polygon fill="black" stroke="black" points="453.76,-129.3 463.76,-125.8 453.76,-122.3 453.76,-129.3"/>
</g>
<!-- TableComponent -->
<g id="node6" class="node">
<title>TableComponent</title>
<polygon fill="#ffffb3" stroke="black" points="137.7,-84.8 24.3,-84.8 24.3,-48.8 137.7,-48.8 137.7,-84.8"/>
<text text-anchor="middle" x="81" y="-62.6" font-family="Times,serif" font-size="14.00">TableComponent</text>
</g>
<!-- TableComponent&#45;&gt;SharedModule -->
<g id="edge6" class="edge">
<title>TableComponent&#45;&gt;SharedModule</title>
<path fill="none" stroke="black" d="M81,-84.91C81,-104.14 81,-131.8 81,-131.8 81,-131.8 453.44,-131.8 453.44,-131.8"/>
<polygon fill="black" stroke="black" points="453.44,-135.3 463.44,-131.8 453.44,-128.3 453.44,-135.3"/>
</g>
<!-- HeaderComponent  -->
<g id="node9" class="node">
<title>HeaderComponent </title>
<polygon fill="#fb8072" stroke="black" points="846.75,-214.8 721.25,-214.8 721.25,-178.8 846.75,-178.8 846.75,-214.8"/>
<text text-anchor="middle" x="784" y="-192.6" font-family="Times,serif" font-size="14.00">HeaderComponent </text>
</g>
<!-- SharedModule&#45;&gt;HeaderComponent  -->
<g id="edge8" class="edge">
<title>SharedModule&#45;&gt;HeaderComponent </title>
<path fill="none" stroke="black" stroke-dasharray="5,2" d="M562.24,-137.8C645.98,-137.8 807.17,-137.8 807.17,-137.8 807.17,-137.8 807.17,-168.78 807.17,-168.78"/>
<polygon fill="black" stroke="black" points="803.67,-168.78 807.17,-178.78 810.67,-168.78 803.67,-168.78"/>
</g>
<!-- NebularModule  -->
<g id="node10" class="node">
<title>NebularModule </title>
<polygon fill="#fb8072" stroke="black" points="703.14,-214.8 594.86,-214.8 594.86,-178.8 703.14,-178.8 703.14,-214.8"/>
<text text-anchor="middle" x="649" y="-192.6" font-family="Times,serif" font-size="14.00">NebularModule </text>
</g>
<!-- SharedModule&#45;&gt;NebularModule  -->
<g id="edge9" class="edge">
<title>SharedModule&#45;&gt;NebularModule </title>
<path fill="none" stroke="black" stroke-dasharray="5,2" d="M562.58,-143.8C607.61,-143.8 667.02,-143.8 667.02,-143.8 667.02,-143.8 667.02,-168.56 667.02,-168.56"/>
<polygon fill="black" stroke="black" points="663.52,-168.56 667.02,-178.56 670.52,-168.56 663.52,-168.56"/>
</g>
<!-- SidebarComponent  -->
<g id="node11" class="node">
<title>SidebarComponent </title>
<polygon fill="#fb8072" stroke="black" points="576.6,-214.8 449.4,-214.8 449.4,-178.8 576.6,-178.8 576.6,-214.8"/>
<text text-anchor="middle" x="513" y="-192.6" font-family="Times,serif" font-size="14.00">SidebarComponent </text>
</g>
<!-- SharedModule&#45;&gt;SidebarComponent  -->
<g id="edge10" class="edge">
<title>SharedModule&#45;&gt;SidebarComponent </title>
<path fill="none" stroke="black" stroke-dasharray="5,2" d="M513,-149.91C513,-149.91 513,-168.79 513,-168.79"/>
<polygon fill="black" stroke="black" points="509.5,-168.79 513,-178.79 516.5,-168.79 509.5,-168.79"/>
</g>
<!-- TableCellComponent  -->
<g id="node12" class="node">
<title>TableCellComponent </title>
<polygon fill="#fb8072" stroke="black" points="431.03,-214.8 290.97,-214.8 290.97,-178.8 431.03,-178.8 431.03,-214.8"/>
<text text-anchor="middle" x="361" y="-192.6" font-family="Times,serif" font-size="14.00">TableCellComponent </text>
</g>
<!-- SharedModule&#45;&gt;TableCellComponent  -->
<g id="edge11" class="edge">
<title>SharedModule&#45;&gt;TableCellComponent </title>
<path fill="none" stroke="black" stroke-dasharray="5,2" d="M463.75,-143.8C415.86,-143.8 350.31,-143.8 350.31,-143.8 350.31,-143.8 350.31,-168.56 350.31,-168.56"/>
<polygon fill="black" stroke="black" points="346.81,-168.56 350.31,-178.56 353.81,-168.56 346.81,-168.56"/>
</g>
<!-- TableComponent  -->
<g id="node13" class="node">
<title>TableComponent </title>
<polygon fill="#fb8072" stroke="black" points="273.2,-214.8 156.8,-214.8 156.8,-178.8 273.2,-178.8 273.2,-214.8"/>
<text text-anchor="middle" x="215" y="-192.6" font-family="Times,serif" font-size="14.00">TableComponent </text>
</g>
<!-- SharedModule&#45;&gt;TableComponent  -->
<g id="edge12" class="edge">
<title>SharedModule&#45;&gt;TableComponent </title>
<path fill="none" stroke="black" stroke-dasharray="5,2" d="M463.46,-137.8C378.72,-137.8 215,-137.8 215,-137.8 215,-137.8 215,-168.78 215,-168.78"/>
<polygon fill="black" stroke="black" points="211.5,-168.78 215,-178.78 218.5,-168.78 211.5,-168.78"/>
</g>
<!-- NebularModule -->
<g id="node8" class="node">
<title>NebularModule</title>
<polygon fill="#8dd3c7" stroke="black" points="976.14,-84.8 973.14,-88.8 952.14,-88.8 949.14,-84.8 871.86,-84.8 871.86,-48.8 976.14,-48.8 976.14,-84.8"/>
<text text-anchor="middle" x="924" y="-62.6" font-family="Times,serif" font-size="14.00">NebularModule</text>
</g>
<!-- NebularModule&#45;&gt;SharedModule -->
<g id="edge7" class="edge">
<title>NebularModule&#45;&gt;SharedModule</title>
<path fill="none" stroke="black" d="M924,-84.91C924,-104.14 924,-131.8 924,-131.8 924,-131.8 572.58,-131.8 572.58,-131.8"/>
<polygon fill="black" stroke="black" points="572.58,-128.3 562.58,-131.8 572.58,-135.3 572.58,-128.3"/>
</g>
</g>
</svg>
