<?xml version="1.0" encoding="UTF-8" standalone="no"?>
<!DOCTYPE svg PUBLIC "-//W3C//DTD SVG 1.1//EN"
 "http://www.w3.org/Graphics/SVG/1.1/DTD/svg11.dtd">
<!-- Generated by graphviz version 3.0.0 (20220226.1711)
 -->
<!-- Title: dependencies Pages: 1 -->
<svg width="472pt" height="174pt"
 viewBox="0.00 0.00 472.00 173.80" xmlns="http://www.w3.org/2000/svg" xmlns:xlink="http://www.w3.org/1999/xlink">
<g id="graph0" class="graph" transform="scale(1 1) rotate(0) translate(4 169.8)">
<title>dependencies</title>
<polygon fill="white" stroke="transparent" points="-4,4 -4,-169.8 468,-169.8 468,4 -4,4"/>
<text text-anchor="middle" x="232" y="-8.2" font-family="sans-serif" font-size="14.00">dependencies</text>
<g id="clust1" class="cluster">
<title>cluster_SettingsModule</title>
<polygon fill="none" stroke="black" stroke-dasharray="1,5" points="8,-32.8 8,-157.8 456,-157.8 456,-32.8 8,-32.8"/>
</g>
<g id="clust2" class="cluster">
<title>cluster_SettingsModule_declarations</title>
<polygon fill="none" stroke="black" points="306,-40.8 306,-92.8 448,-92.8 448,-40.8 306,-40.8"/>
</g>
<g id="clust4" class="cluster">
<title>cluster_SettingsModule_imports</title>
<polygon fill="none" stroke="black" points="16,-40.8 16,-92.8 298,-92.8 298,-40.8 16,-40.8"/>
</g>
<!-- TradingComponent -->
<g id="node1" class="node">
<title>TradingComponent</title>
<polygon fill="#ffffb3" stroke="black" points="439.65,-84.8 314.35,-84.8 314.35,-48.8 439.65,-48.8 439.65,-84.8"/>
<text text-anchor="middle" x="377" y="-62.6" font-family="Times,serif" font-size="14.00">TradingComponent</text>
</g>
<!-- SettingsModule -->
<g id="node2" class="node">
<title>SettingsModule</title>
<polygon fill="#8dd3c7" stroke="black" points="267.17,-149.8 264.17,-153.8 243.17,-153.8 240.17,-149.8 162.83,-149.8 162.83,-113.8 267.17,-113.8 267.17,-149.8"/>
<text text-anchor="middle" x="215" y="-127.6" font-family="Times,serif" font-size="14.00">SettingsModule</text>
</g>
<!-- TradingComponent&#45;&gt;SettingsModule -->
<g id="edge1" class="edge">
<title>TradingComponent&#45;&gt;SettingsModule</title>
<path fill="none" stroke="black" d="M377,-84.91C377,-104.14 377,-131.8 377,-131.8 377,-131.8 277.6,-131.8 277.6,-131.8"/>
<polygon fill="black" stroke="black" points="277.6,-128.3 267.6,-131.8 277.6,-135.3 277.6,-128.3"/>
</g>
<!-- SettingsRoutingModule -->
<g id="node3" class="node">
<title>SettingsRoutingModule</title>
<polygon fill="#8dd3c7" stroke="black" points="289.79,-84.8 286.79,-88.8 265.79,-88.8 262.79,-84.8 140.21,-84.8 140.21,-48.8 289.79,-48.8 289.79,-84.8"/>
<text text-anchor="middle" x="215" y="-62.6" font-family="Times,serif" font-size="14.00">SettingsRoutingModule</text>
</g>
<!-- SettingsRoutingModule&#45;&gt;SettingsModule -->
<g id="edge2" class="edge">
<title>SettingsRoutingModule&#45;&gt;SettingsModule</title>
<path fill="none" stroke="black" d="M215,-84.91C215,-84.91 215,-103.79 215,-103.79"/>
<polygon fill="black" stroke="black" points="211.5,-103.79 215,-113.79 218.5,-103.79 211.5,-103.79"/>
</g>
<!-- SharedModule -->
<g id="node4" class="node">
<title>SharedModule</title>
<polygon fill="#8dd3c7" stroke="black" points="122.43,-84.8 119.43,-88.8 98.43,-88.8 95.43,-84.8 23.57,-84.8 23.57,-48.8 122.43,-48.8 122.43,-84.8"/>
<text text-anchor="middle" x="73" y="-62.6" font-family="Times,serif" font-size="14.00">SharedModule</text>
</g>
<!-- SharedModule&#45;&gt;SettingsModule -->
<g id="edge3" class="edge">
<title>SharedModule&#45;&gt;SettingsModule</title>
<path fill="none" stroke="black" d="M73,-84.91C73,-104.14 73,-131.8 73,-131.8 73,-131.8 152.53,-131.8 152.53,-131.8"/>
<polygon fill="black" stroke="black" points="152.53,-135.3 162.53,-131.8 152.53,-128.3 152.53,-135.3"/>
</g>
</g>
</svg>
