<?xml version="1.0" encoding="UTF-8" standalone="no"?>
<!DOCTYPE svg PUBLIC "-//W3C//DTD SVG 1.1//EN"
 "http://www.w3.org/Graphics/SVG/1.1/DTD/svg11.dtd">
<!-- Generated by graphviz version 3.0.0 (20220226.1711)
 -->
<!-- Title: dependencies Pages: 1 -->
<svg width="2004pt" height="174pt"
 viewBox="0.00 0.00 2004.00 173.80" xmlns="http://www.w3.org/2000/svg" xmlns:xlink="http://www.w3.org/1999/xlink">
<g id="graph0" class="graph" transform="scale(1 1) rotate(0) translate(4 169.8)">
<title>dependencies</title>
<polygon fill="white" stroke="transparent" points="-4,4 -4,-169.8 2000,-169.8 2000,4 -4,4"/>
<text text-anchor="middle" x="998" y="-8.2" font-family="sans-serif" font-size="14.00">dependencies</text>
<g id="clust1" class="cluster">
<title>cluster_TradingModule</title>
<polygon fill="none" stroke="black" stroke-dasharray="1,5" points="8,-32.8 8,-157.8 1988,-157.8 1988,-32.8 8,-32.8"/>
</g>
<g id="clust2" class="cluster">
<title>cluster_TradingModule_declarations</title>
<polygon fill="none" stroke="black" points="305,-40.8 305,-92.8 1980,-92.8 1980,-40.8 305,-40.8"/>
</g>
<g id="clust12" class="cluster">
<title>cluster_TradingModule_imports</title>
<polygon fill="none" stroke="black" points="16,-40.8 16,-92.8 297,-92.8 297,-40.8 16,-40.8"/>
</g>
<!-- InstrumentDetailComponent -->
<g id="node1" class="node">
<title>InstrumentDetailComponent</title>
<polygon fill="#ffffb3" stroke="black" points="1972.19,-84.8 1795.81,-84.8 1795.81,-48.8 1972.19,-48.8 1972.19,-84.8"/>
<text text-anchor="middle" x="1884" y="-62.6" font-family="Times,serif" font-size="14.00">InstrumentDetailComponent</text>
</g>
<!-- TradingModule -->
<g id="node10" class="node">
<title>TradingModule</title>
<polygon fill="#8dd3c7" stroke="black" points="1054.87,-149.8 1051.87,-153.8 1030.87,-153.8 1027.87,-149.8 951.13,-149.8 951.13,-113.8 1054.87,-113.8 1054.87,-149.8"/>
<text text-anchor="middle" x="1003" y="-127.6" font-family="Times,serif" font-size="14.00">TradingModule</text>
</g>
<!-- InstrumentDetailComponent&#45;&gt;TradingModule -->
<g id="edge1" class="edge">
<title>InstrumentDetailComponent&#45;&gt;TradingModule</title>
<path fill="none" stroke="black" d="M1884,-84.89C1884,-107.93 1884,-144.8 1884,-144.8 1884,-144.8 1065.15,-144.8 1065.15,-144.8"/>
<polygon fill="black" stroke="black" points="1065.15,-141.3 1055.15,-144.8 1065.15,-148.3 1065.15,-141.3"/>
</g>
<!-- InstrumentListComponent -->
<g id="node2" class="node">
<title>InstrumentListComponent</title>
<polygon fill="#ffffb3" stroke="black" points="1777.77,-84.8 1614.23,-84.8 1614.23,-48.8 1777.77,-48.8 1777.77,-84.8"/>
<text text-anchor="middle" x="1696" y="-62.6" font-family="Times,serif" font-size="14.00">InstrumentListComponent</text>
</g>
<!-- InstrumentListComponent&#45;&gt;TradingModule -->
<g id="edge2" class="edge">
<title>InstrumentListComponent&#45;&gt;TradingModule</title>
<path fill="none" stroke="black" d="M1696,-85.08C1696,-106.12 1696,-137.8 1696,-137.8 1696,-137.8 1065.09,-137.8 1065.09,-137.8"/>
<polygon fill="black" stroke="black" points="1065.09,-134.3 1055.09,-137.8 1065.09,-141.3 1065.09,-134.3"/>
</g>
<!-- RightBarComponent -->
<g id="node3" class="node">
<title>RightBarComponent</title>
<polygon fill="#ffffb3" stroke="black" points="1596.16,-84.8 1463.84,-84.8 1463.84,-48.8 1596.16,-48.8 1596.16,-84.8"/>
<text text-anchor="middle" x="1530" y="-62.6" font-family="Times,serif" font-size="14.00">RightBarComponent</text>
</g>
<!-- RightBarComponent&#45;&gt;TradingModule -->
<g id="edge3" class="edge">
<title>RightBarComponent&#45;&gt;TradingModule</title>
<path fill="none" stroke="black" d="M1530,-84.91C1530,-104.14 1530,-131.8 1530,-131.8 1530,-131.8 1064.97,-131.8 1064.97,-131.8"/>
<polygon fill="black" stroke="black" points="1064.97,-128.3 1054.97,-131.8 1064.97,-135.3 1064.97,-128.3"/>
</g>
<!-- WidgetAnalysisComponent -->
<g id="node4" class="node">
<title>WidgetAnalysisComponent</title>
<polygon fill="#ffffb3" stroke="black" points="1445.54,-84.8 1274.46,-84.8 1274.46,-48.8 1445.54,-48.8 1445.54,-84.8"/>
<text text-anchor="middle" x="1360" y="-62.6" font-family="Times,serif" font-size="14.00">WidgetAnalysisComponent</text>
</g>
<!-- WidgetAnalysisComponent&#45;&gt;TradingModule -->
<g id="edge4" class="edge">
<title>WidgetAnalysisComponent&#45;&gt;TradingModule</title>
<path fill="none" stroke="black" d="M1360,-84.82C1360,-102.17 1360,-125.8 1360,-125.8 1360,-125.8 1064.91,-125.8 1064.91,-125.8"/>
<polygon fill="black" stroke="black" points="1064.91,-122.3 1054.91,-125.8 1064.91,-129.3 1064.91,-122.3"/>
</g>
<!-- WidgetAnalysisDirective -->
<g id="node5" class="node">
<title>WidgetAnalysisDirective</title>
<polygon fill="#ffffb3" stroke="black" points="1256.29,-84.8 1097.71,-84.8 1097.71,-48.8 1256.29,-48.8 1256.29,-84.8"/>
<text text-anchor="middle" x="1177" y="-62.6" font-family="Times,serif" font-size="14.00">WidgetAnalysisDirective</text>
</g>
<!-- WidgetAnalysisDirective&#45;&gt;TradingModule -->
<g id="edge5" class="edge">
<title>WidgetAnalysisDirective&#45;&gt;TradingModule</title>
<path fill="none" stroke="black" d="M1177,-85.04C1177,-100.37 1177,-119.8 1177,-119.8 1177,-119.8 1065.21,-119.8 1065.21,-119.8"/>
<polygon fill="black" stroke="black" points="1065.21,-116.3 1055.21,-119.8 1065.21,-123.3 1065.21,-116.3"/>
</g>
<!-- WidgetChartComponent -->
<g id="node6" class="node">
<title>WidgetChartComponent</title>
<polygon fill="#ffffb3" stroke="black" points="1079.64,-84.8 926.36,-84.8 926.36,-48.8 1079.64,-48.8 1079.64,-84.8"/>
<text text-anchor="middle" x="1003" y="-62.6" font-family="Times,serif" font-size="14.00">WidgetChartComponent</text>
</g>
<!-- WidgetChartComponent&#45;&gt;TradingModule -->
<g id="edge6" class="edge">
<title>WidgetChartComponent&#45;&gt;TradingModule</title>
<path fill="none" stroke="black" d="M1003,-84.91C1003,-84.91 1003,-103.79 1003,-103.79"/>
<polygon fill="black" stroke="black" points="999.5,-103.79 1003,-113.79 1006.5,-103.79 999.5,-103.79"/>
</g>
<!-- WidgetForexHeatMapComponent -->
<g id="node7" class="node">
<title>WidgetForexHeatMapComponent</title>
<polygon fill="#ffffb3" stroke="black" points="908.79,-84.8 701.21,-84.8 701.21,-48.8 908.79,-48.8 908.79,-84.8"/>
<text text-anchor="middle" x="805" y="-62.6" font-family="Times,serif" font-size="14.00">WidgetForexHeatMapComponent</text>
</g>
<!-- WidgetForexHeatMapComponent&#45;&gt;TradingModule -->
<g id="edge7" class="edge">
<title>WidgetForexHeatMapComponent&#45;&gt;TradingModule</title>
<path fill="none" stroke="black" d="M805,-85.04C805,-100.37 805,-119.8 805,-119.8 805,-119.8 940.98,-119.8 940.98,-119.8"/>
<polygon fill="black" stroke="black" points="940.98,-123.3 950.98,-119.8 940.98,-116.3 940.98,-123.3"/>
</g>
<!-- WidgetForexHeatMapDirective -->
<g id="node8" class="node">
<title>WidgetForexHeatMapDirective</title>
<polygon fill="#ffffb3" stroke="black" points="683.04,-84.8 488.96,-84.8 488.96,-48.8 683.04,-48.8 683.04,-84.8"/>
<text text-anchor="middle" x="586" y="-62.6" font-family="Times,serif" font-size="14.00">WidgetForexHeatMapDirective</text>
</g>
<!-- WidgetForexHeatMapDirective&#45;&gt;TradingModule -->
<g id="edge8" class="edge">
<title>WidgetForexHeatMapDirective&#45;&gt;TradingModule</title>
<path fill="none" stroke="black" d="M586,-84.82C586,-102.17 586,-125.8 586,-125.8 586,-125.8 941.03,-125.8 941.03,-125.8"/>
<polygon fill="black" stroke="black" points="941.03,-129.3 951.03,-125.8 941.03,-122.3 941.03,-129.3"/>
</g>
<!-- WidgetScreenerDirective -->
<g id="node9" class="node">
<title>WidgetScreenerDirective</title>
<polygon fill="#ffffb3" stroke="black" points="471.26,-84.8 312.74,-84.8 312.74,-48.8 471.26,-48.8 471.26,-84.8"/>
<text text-anchor="middle" x="392" y="-62.6" font-family="Times,serif" font-size="14.00">WidgetScreenerDirective</text>
</g>
<!-- WidgetScreenerDirective&#45;&gt;TradingModule -->
<g id="edge9" class="edge">
<title>WidgetScreenerDirective&#45;&gt;TradingModule</title>
<path fill="none" stroke="black" d="M392,-84.91C392,-104.14 392,-131.8 392,-131.8 392,-131.8 940.91,-131.8 940.91,-131.8"/>
<polygon fill="black" stroke="black" points="940.91,-135.3 950.91,-131.8 940.91,-128.3 940.91,-135.3"/>
</g>
<!-- SharedModule -->
<g id="node11" class="node">
<title>SharedModule</title>
<polygon fill="#8dd3c7" stroke="black" points="289.43,-84.8 286.43,-88.8 265.43,-88.8 262.43,-84.8 190.57,-84.8 190.57,-48.8 289.43,-48.8 289.43,-84.8"/>
<text text-anchor="middle" x="240" y="-62.6" font-family="Times,serif" font-size="14.00">SharedModule</text>
</g>
<!-- SharedModule&#45;&gt;TradingModule -->
<g id="edge10" class="edge">
<title>SharedModule&#45;&gt;TradingModule</title>
<path fill="none" stroke="black" d="M240,-85.08C240,-106.12 240,-137.8 240,-137.8 240,-137.8 940.86,-137.8 940.86,-137.8"/>
<polygon fill="black" stroke="black" points="940.86,-141.3 950.86,-137.8 940.86,-134.3 940.86,-141.3"/>
</g>
<!-- TradingRoutingModule -->
<g id="node12" class="node">
<title>TradingRoutingModule</title>
<polygon fill="#8dd3c7" stroke="black" points="172.49,-84.8 169.49,-88.8 148.49,-88.8 145.49,-84.8 23.51,-84.8 23.51,-48.8 172.49,-48.8 172.49,-84.8"/>
<text text-anchor="middle" x="98" y="-62.6" font-family="Times,serif" font-size="14.00">TradingRoutingModule</text>
</g>
<!-- TradingRoutingModule&#45;&gt;TradingModule -->
<g id="edge11" class="edge">
<title>TradingRoutingModule&#45;&gt;TradingModule</title>
<path fill="none" stroke="black" d="M98,-84.89C98,-107.93 98,-144.8 98,-144.8 98,-144.8 941.09,-144.8 941.09,-144.8"/>
<polygon fill="black" stroke="black" points="941.09,-148.3 951.09,-144.8 941.09,-141.3 941.09,-148.3"/>
</g>
</g>
</svg>
