<?xml version="1.0" encoding="UTF-8" standalone="no"?>
<!DOCTYPE svg PUBLIC "-//W3C//DTD SVG 1.1//EN"
 "http://www.w3.org/Graphics/SVG/1.1/DTD/svg11.dtd">
<!-- Generated by graphviz version 3.0.0 (20220226.1711)
 -->
<!-- Title: dependencies Pages: 1 -->
<svg width="806pt" height="247pt"
 viewBox="0.00 0.00 806.00 246.80" xmlns="http://www.w3.org/2000/svg" xmlns:xlink="http://www.w3.org/1999/xlink">
<g id="graph0" class="graph" transform="scale(1 1) rotate(0) translate(4 242.8)">
<title>dependencies</title>
<polygon fill="white" stroke="transparent" points="-4,4 -4,-242.8 802,-242.8 802,4 -4,4"/>
<text text-anchor="middle" x="399" y="-8.2" font-family="sans-serif" font-size="14.00">dependencies</text>
<g id="clust1" class="cluster">
<title>cluster_AppModule</title>
<polygon fill="none" stroke="black" stroke-dasharray="1,5" points="8,-32.8 8,-230.8 790,-230.8 790,-32.8 8,-32.8"/>
</g>
<g id="clust7" class="cluster">
<title>cluster_AppModule_providers</title>
<polygon fill="none" stroke="black" points="642,-40.8 642,-92.8 782,-92.8 782,-40.8 642,-40.8"/>
</g>
<g id="clust6" class="cluster">
<title>cluster_AppModule_bootstrap</title>
<polygon fill="none" stroke="black" points="318,-170.8 318,-222.8 442,-222.8 442,-170.8 318,-170.8"/>
</g>
<g id="clust4" class="cluster">
<title>cluster_AppModule_imports</title>
<polygon fill="none" stroke="black" points="146,-40.8 146,-92.8 634,-92.8 634,-40.8 146,-40.8"/>
</g>
<g id="clust2" class="cluster">
<title>cluster_AppModule_declarations</title>
<polygon fill="none" stroke="black" points="16,-40.8 16,-92.8 138,-92.8 138,-40.8 16,-40.8"/>
</g>
<!-- AppComponent -->
<g id="node1" class="node">
<title>AppComponent</title>
<polygon fill="#ffffb3" stroke="black" points="129.94,-84.8 24.06,-84.8 24.06,-48.8 129.94,-48.8 129.94,-84.8"/>
<text text-anchor="middle" x="77" y="-62.6" font-family="Times,serif" font-size="14.00">AppComponent</text>
</g>
<!-- AppModule -->
<g id="node2" class="node">
<title>AppModule</title>
<polygon fill="#8dd3c7" stroke="black" points="421.66,-149.8 418.66,-153.8 397.66,-153.8 394.66,-149.8 338.34,-149.8 338.34,-113.8 421.66,-113.8 421.66,-149.8"/>
<text text-anchor="middle" x="380" y="-127.6" font-family="Times,serif" font-size="14.00">AppModule</text>
</g>
<!-- AppComponent&#45;&gt;AppModule -->
<g id="edge1" class="edge">
<title>AppComponent&#45;&gt;AppModule</title>
<path fill="none" stroke="black" d="M77,-85.08C77,-106.12 77,-137.8 77,-137.8 77,-137.8 328.19,-137.8 328.19,-137.8"/>
<polygon fill="black" stroke="black" points="328.19,-141.3 338.19,-137.8 328.19,-134.3 328.19,-141.3"/>
</g>
<!-- AppComponent  -->
<g id="node7" class="node">
<title>AppComponent </title>
<polygon fill="#80b1d3" stroke="black" points="434.44,-214.8 325.56,-214.8 325.56,-178.8 434.44,-178.8 434.44,-214.8"/>
<text text-anchor="middle" x="380" y="-192.6" font-family="Times,serif" font-size="14.00">AppComponent </text>
</g>
<!-- AppModule&#45;&gt;AppComponent  -->
<g id="edge6" class="edge">
<title>AppModule&#45;&gt;AppComponent </title>
<path fill="none" stroke="black" stroke-dasharray="1,5" d="M380,-149.91C380,-149.91 380,-168.79 380,-168.79"/>
<polygon fill="black" stroke="black" points="376.5,-168.79 380,-178.79 383.5,-168.79 376.5,-168.79"/>
</g>
<!-- AppRoutingModule -->
<g id="node3" class="node">
<title>AppRoutingModule</title>
<polygon fill="#8dd3c7" stroke="black" points="626.28,-84.8 623.28,-88.8 602.28,-88.8 599.28,-84.8 497.72,-84.8 497.72,-48.8 626.28,-48.8 626.28,-84.8"/>
<text text-anchor="middle" x="562" y="-62.6" font-family="Times,serif" font-size="14.00">AppRoutingModule</text>
</g>
<!-- AppRoutingModule&#45;&gt;AppModule -->
<g id="edge2" class="edge">
<title>AppRoutingModule&#45;&gt;AppModule</title>
<path fill="none" stroke="black" d="M562,-84.82C562,-102.17 562,-125.8 562,-125.8 562,-125.8 431.75,-125.8 431.75,-125.8"/>
<polygon fill="black" stroke="black" points="431.75,-122.3 421.75,-125.8 431.75,-129.3 431.75,-122.3"/>
</g>
<!-- AuthModule -->
<g id="node4" class="node">
<title>AuthModule</title>
<polygon fill="#8dd3c7" stroke="black" points="479.55,-84.8 476.55,-88.8 455.55,-88.8 452.55,-84.8 392.45,-84.8 392.45,-48.8 479.55,-48.8 479.55,-84.8"/>
<text text-anchor="middle" x="436" y="-62.6" font-family="Times,serif" font-size="14.00">AuthModule</text>
</g>
<!-- AuthModule&#45;&gt;AppModule -->
<g id="edge3" class="edge">
<title>AuthModule&#45;&gt;AppModule</title>
<path fill="none" stroke="black" d="M407.03,-84.91C407.03,-84.91 407.03,-103.79 407.03,-103.79"/>
<polygon fill="black" stroke="black" points="403.53,-103.79 407.03,-113.79 410.53,-103.79 403.53,-103.79"/>
</g>
<!-- SharedModule -->
<g id="node5" class="node">
<title>SharedModule</title>
<polygon fill="#8dd3c7" stroke="black" points="374.43,-84.8 371.43,-88.8 350.43,-88.8 347.43,-84.8 275.57,-84.8 275.57,-48.8 374.43,-48.8 374.43,-84.8"/>
<text text-anchor="middle" x="325" y="-62.6" font-family="Times,serif" font-size="14.00">SharedModule</text>
</g>
<!-- SharedModule&#45;&gt;AppModule -->
<g id="edge4" class="edge">
<title>SharedModule&#45;&gt;AppModule</title>
<path fill="none" stroke="black" d="M356.19,-84.91C356.19,-84.91 356.19,-103.79 356.19,-103.79"/>
<polygon fill="black" stroke="black" points="352.69,-103.79 356.19,-113.79 359.69,-103.79 352.69,-103.79"/>
</g>
<!-- TradingModule -->
<g id="node6" class="node">
<title>TradingModule</title>
<polygon fill="#8dd3c7" stroke="black" points="257.87,-84.8 254.87,-88.8 233.87,-88.8 230.87,-84.8 154.13,-84.8 154.13,-48.8 257.87,-48.8 257.87,-84.8"/>
<text text-anchor="middle" x="206" y="-62.6" font-family="Times,serif" font-size="14.00">TradingModule</text>
</g>
<!-- TradingModule&#45;&gt;AppModule -->
<g id="edge5" class="edge">
<title>TradingModule&#45;&gt;AppModule</title>
<path fill="none" stroke="black" d="M206,-84.82C206,-102.17 206,-125.8 206,-125.8 206,-125.8 328.32,-125.8 328.32,-125.8"/>
<polygon fill="black" stroke="black" points="328.32,-129.3 338.32,-125.8 328.32,-122.3 328.32,-129.3"/>
</g>
<!-- FxcmService -->
<g id="node8" class="node">
<title>FxcmService</title>
<ellipse fill="#fdb462" stroke="black" cx="712" cy="-66.8" rx="61.98" ry="18"/>
<text text-anchor="middle" x="712" y="-62.6" font-family="Times,serif" font-size="14.00">FxcmService</text>
</g>
<!-- FxcmService&#45;&gt;AppModule -->
<g id="edge7" class="edge">
<title>FxcmService&#45;&gt;AppModule</title>
<path fill="none" stroke="black" d="M712,-85.08C712,-106.12 712,-137.8 712,-137.8 712,-137.8 431.71,-137.8 431.71,-137.8"/>
<polygon fill="black" stroke="black" points="431.71,-134.3 421.71,-137.8 431.71,-141.3 431.71,-134.3"/>
</g>
</g>
</svg>
