<svg id="Group_905" data-name="Group 905" xmlns="http://www.w3.org/2000/svg" width="18" height="18" viewBox="0 0 18 18">
  <rect id="Rectangle_482" data-name="Rectangle 482" width="18" height="18" fill="none"/>
  <path id="Icon_awesome-google" data-name="Icon awesome-google" d="M12.116,6.864a5.718,5.718,0,0,1-5.959,6.013,6.157,6.157,0,0,1,0-12.315,5.921,5.921,0,0,1,4.129,1.611L8.61,3.785A3.79,3.79,0,0,0,2.341,6.72a3.857,3.857,0,0,0,3.816,3.888,3.33,3.33,0,0,0,3.5-2.654h-3.5V5.836h5.862A5.4,5.4,0,0,1,12.116,6.864Z" transform="translate(2.631 2.28)" fill="#fff"/>
</svg>
